<svg version="1.1" id="Layer_1" xmlns="http://www.w3.org/2000/svg" xmlns:xlink="http://www.w3.org/1999/xlink" x="0px" y="0px"
	 width="100%" viewBox="0 0 496 368" enable-background="new 0 0 496 368" xml:space="preserve">
<path fill="#000000" opacity="1.000000" stroke="none" 
	d="
M118.016266,257.090637 
	C109.659477,257.189056 109.656326,257.189056 109.653008,249.313980 
	C109.651031,244.647934 109.769089,239.978592 109.626579,235.317047 
	C109.534843,232.316193 110.827003,231.034409 113.725624,231.047913 
	C118.391289,231.069656 123.058540,231.111923 127.722473,231.016357 
	C130.719910,230.954941 132.019333,232.395721 131.937759,235.249512 
	C131.799820,240.075058 131.792358,244.914169 131.390259,249.719147 
	C131.083664,253.383041 132.252258,254.690918 136.057587,254.748215 
	C149.630020,254.952621 149.618530,255.079254 149.668167,241.501892 
	C149.696808,233.669861 149.678986,225.836151 149.850311,218.006882 
	C149.923767,214.649597 148.792023,212.881271 145.237839,213.369873 
	C134.413376,214.857971 123.980453,210.408981 113.192787,211.279373 
	C110.195381,211.521210 109.644905,209.564880 109.654312,207.097382 
	C109.684792,199.098572 109.464851,191.093185 109.729057,183.103149 
	C109.869606,178.853027 108.689369,176.886993 104.133995,177.330734 
	C100.498100,177.684906 96.806732,177.430313 93.144821,177.571365 
	C90.950089,177.655899 89.634285,177.065994 89.642822,174.578491 
	C89.719475,152.254196 89.760277,129.929794 89.833336,107.605476 
	C89.834290,107.314758 90.117851,107.024963 90.401932,106.481293 
	C94.063965,108.146111 96.824631,111.053444 99.860718,113.495651 
	C125.314484,133.970398 152.562653,152.062271 178.107376,172.402756 
	C197.004608,187.450043 215.751541,202.679749 235.459259,216.673920 
	C239.460983,219.515503 243.812103,221.517853 248.621841,222.433594 
	C255.506073,223.744278 261.220490,221.370895 266.675262,217.190811 
	C289.153839,199.965149 311.766388,182.914124 334.350891,165.826935 
	C359.722809,146.630798 385.115021,127.461472 410.513275,108.300224 
	C411.415588,107.619484 412.476593,107.149048 413.408936,106.612114 
	C415.789795,108.062767 415.198608,110.262436 415.201385,112.120621 
	C415.279633,164.113815 415.405762,216.107361 415.273224,268.100189 
	C415.239563,281.295898 406.926117,290.101685 397.620636,298.084686 
	C389.862946,304.739868 381.222778,307.679993 370.655670,307.559906 
	C329.166595,307.088287 287.665894,307.124451 246.175217,307.541565 
	C228.520569,307.719055 210.859329,307.985138 193.203659,308.316376 
	C188.337769,308.407654 186.792892,306.676239 186.946457,301.942627 
	C187.309418,290.754181 187.440292,292.366821 177.402878,292.286896 
	C175.737076,292.273621 174.070587,292.355682 172.404648,292.347076 
	C170.111862,292.335266 169.066254,293.516418 169.042831,295.736206 
	C169.039307,296.069244 169.040710,296.405304 168.998062,296.734528 
	C168.518616,300.436432 170.785950,305.660461 167.413498,307.524628 
	C163.201752,309.852722 157.124344,309.582581 152.806305,307.921814 
	C146.801315,305.612183 150.995514,299.156158 150.062485,294.622681 
	C149.537521,292.072021 151.008118,290.606689 153.822571,290.674042 
	C157.153061,290.753754 160.490784,290.566345 163.819489,290.674927 
	C166.535675,290.763580 167.779770,289.690552 167.842682,286.917908 
	C168.039139,278.259918 168.273346,269.601257 168.648987,260.949615 
	C168.802216,257.420502 167.279724,256.406036 163.911743,256.319672 
	C150.836334,255.984238 150.758163,255.884979 150.003342,268.824493 
	C149.814209,272.066864 148.805313,273.351410 145.336960,273.671021 
	C130.960495,274.995911 130.976883,275.133850 130.641846,260.623291 
	C130.619217,259.642975 130.480408,258.665344 130.374359,257.440857 
	C126.373360,256.433838 122.407158,257.291870 118.016266,257.090637 
M201.185989,255.945786 
	C198.023727,256.063995 194.862091,256.205078 191.698959,256.291656 
	C189.861252,256.341980 188.366486,256.778748 188.197067,258.959381 
	C187.913528,262.608917 187.610352,266.257690 187.396347,269.911560 
	C187.275665,271.971924 187.960464,273.268280 190.365601,273.654175 
	C203.677765,275.789825 206.430191,273.424164 205.642456,260.234070 
	C205.632538,260.067963 205.625641,259.900604 205.633987,259.734619 
	C205.759018,257.246979 204.549591,256.018890 201.185989,255.945786 
M363.886383,243.639557 
	C360.019714,240.772446 356.189240,237.854584 352.270264,235.060883 
	C350.465912,233.774612 348.212097,233.547592 346.898407,235.416519 
	C345.590302,237.277466 344.710724,240.045792 346.819733,241.792450 
	C353.587952,247.397797 360.538208,252.791092 367.563232,258.073303 
	C369.390045,259.446899 371.828735,259.359619 373.526978,257.587097 
	C375.452179,255.577698 374.087646,253.475815 372.913025,251.710876 
	C370.758575,248.473679 367.463196,246.411697 363.886383,243.639557 
M187.123688,219.177002 
	C186.729370,211.131073 186.729370,211.131454 178.526413,211.168350 
	C177.360535,211.173584 176.184952,211.271225 175.030441,211.157654 
	C170.753799,210.736938 169.093445,212.454010 169.262650,216.887314 
	C169.730057,229.133224 167.411972,227.938354 180.055649,227.791809 
	C187.942825,227.700363 187.942703,227.689346 187.123688,219.177002 
z"/>
<path fill="#000000" opacity="1.000000" stroke="none" 
	d="
M331.999634,65.776215 
	C349.330139,65.738205 366.160675,65.692505 382.991180,65.671211 
	C395.360016,65.655556 403.569275,72.011765 409.037079,82.642349 
	C410.559082,85.601364 410.274017,87.540375 407.354645,89.752228 
	C382.267303,108.759338 357.408875,128.068817 332.302246,147.050171 
	C309.982086,163.924896 287.446075,180.514435 264.978577,197.193802 
	C255.250549,204.415649 246.139435,204.333847 236.684418,196.739517 
	C192.398026,161.168533 147.596558,126.261574 102.237183,92.068962 
	C94.278954,86.069916 93.882309,82.316879 100.267372,74.433983 
	C105.065536,68.510262 111.291252,65.790306 119.036217,65.804092 
	C180.192307,65.912956 241.348633,65.891060 302.504883,65.894264 
	C312.169800,65.894768 321.834686,65.819321 331.999634,65.776215 
z"/>
<path fill="#000000" opacity="1.000000" stroke="none" 
	d="
M81.784225,265.388000 
	C81.894562,266.674561 81.978645,267.502594 82.005760,268.332458 
	C82.232849,275.283417 82.228462,275.243408 75.430435,275.453461 
	C72.444527,275.545746 69.461586,275.800629 66.483192,276.051666 
	C63.194946,276.328796 61.354931,275.158569 61.660686,271.574860 
	C61.745113,270.585327 61.661037,269.581573 61.657372,268.584351 
	C61.603600,253.948624 63.796383,252.180908 78.494644,254.681091 
	C80.606453,255.040314 81.267509,256.049408 81.324493,257.969177 
	C81.393425,260.291565 81.590141,262.610107 81.784225,265.388000 
z"/>
<path fill="#000000" opacity="1.000000" stroke="none" 
	d="
M110.119415,291.764343 
	C122.947830,291.651489 122.939949,291.651764 123.373528,304.168732 
	C123.419327,305.491058 123.559975,306.818451 123.771629,308.124878 
	C124.214615,310.859283 123.164490,312.248444 120.334534,312.233307 
	C116.018608,312.210175 111.702408,312.202789 107.386513,312.224976 
	C104.579758,312.239441 103.619331,310.703827 103.660194,308.112122 
	C103.712532,304.792786 103.896065,301.449738 103.592293,298.156677 
	C103.164688,293.521240 104.735489,291.169464 110.119415,291.764343 
z"/>
<path fill="#000000" opacity="1.000000" stroke="none" 
	d="
M90.640167,205.623260 
	C90.053253,215.299911 90.053200,215.329178 80.893188,215.311279 
	C70.725685,215.291397 71.704292,216.267776 71.686043,205.831497 
	C71.674362,199.153473 71.711891,199.155960 78.191032,199.009705 
	C80.346382,198.961044 82.501404,198.897614 84.656487,198.837387 
	C90.948708,198.661545 91.039825,198.756470 90.640167,205.623260 
z"/>
</svg>